<svg 
 xmlns="http://www.w3.org/2000/svg"
 xmlns:xlink="http://www.w3.org/1999/xlink"
 width="233px" height="150px">
<path fill-rule="evenodd"  stroke="rgb(206, 215, 221)" stroke-width="4px" stroke-linecap="round" stroke-linejoin="round" fill-opacity="0" fill="rgb(255, 0, 0)"
 d="M9.000,74.000 C11.761,74.000 14.000,76.238 14.000,79.000 C14.000,81.761 11.761,84.000 9.000,84.000 C6.239,84.000 4.000,81.761 4.000,79.000 C4.000,76.238 6.239,74.000 9.000,74.000 Z"/>
<path fill-rule="evenodd"  fill="rgb(206, 215, 221)"
 d="M28.000,112.000 C29.657,112.000 31.000,113.343 31.000,115.000 C31.000,116.657 29.657,118.000 28.000,118.000 C26.343,118.000 25.000,116.657 25.000,115.000 C25.000,113.343 26.343,112.000 28.000,112.000 Z"/>
<path fill-rule="evenodd"  stroke="rgb(206, 215, 221)" stroke-width="4px" stroke-linecap="round" stroke-linejoin="round" fill-opacity="0" fill="rgb(255, 0, 0)"
 d="M211.999,117.116 C211.999,116.377 211.999,103.411 211.999,102.902 C211.999,102.241 212.677,101.749 213.347,102.136 C213.883,102.445 224.610,108.694 225.525,109.229 C226.126,109.580 226.116,110.417 225.525,110.768 C224.866,111.160 214.099,117.441 213.319,117.877 C212.748,118.197 211.999,117.844 211.999,117.116 Z"/>
<path fill-rule="evenodd"  fill="rgb(206, 215, 221)"
 d="M181.000,126.000 C182.657,126.000 184.000,127.343 184.000,129.000 C184.000,130.657 182.657,132.000 181.000,132.000 C179.343,132.000 178.000,130.657 178.000,129.000 C178.000,127.343 179.343,126.000 181.000,126.000 Z"/>
<path fill-rule="evenodd"  stroke="rgb(206, 215, 221)" stroke-width="4px" stroke-linecap="round" stroke-linejoin="round" fill="rgb(255, 0, 0)"
 d=""/>
<path fill-rule="evenodd"  stroke="rgb(206, 215, 221)" stroke-width="4px" stroke-linecap="round" stroke-linejoin="round" fill="rgb(255, 0, 0)"
 d=""/>
<path fill-rule="evenodd"  fill="rgb(225, 165, 97)"
 d="M69.000,21.000 L157.000,21.000 C162.523,21.000 167.000,25.477 167.000,31.000 L167.000,137.000 C167.000,142.523 162.523,147.000 157.000,147.000 L69.000,147.000 C63.477,147.000 59.000,142.523 59.000,137.000 L59.000,31.000 C59.000,25.477 63.477,21.000 69.000,21.000 Z"/>
<path fill-rule="evenodd"  fill="rgb(255, 255, 255)"
 d="M72.000,30.000 L154.000,30.000 C156.209,30.000 158.000,31.791 158.000,34.000 L158.000,134.000 C158.000,136.209 156.209,138.000 154.000,138.000 L72.000,138.000 C69.791,138.000 68.000,136.209 68.000,134.000 L68.000,34.000 C68.000,31.791 69.791,30.000 72.000,30.000 Z"/>
<path fill-rule="evenodd"  fill="rgb(116, 125, 132)"
 d="M139.000,36.000 L87.000,36.000 C84.791,36.000 83.000,34.209 83.000,32.000 L83.000,30.000 L83.000,28.000 L83.000,20.000 C83.000,16.686 85.686,14.000 89.000,14.000 L99.000,14.000 C99.000,6.268 105.268,-0.000 113.000,-0.000 C120.732,-0.000 127.000,6.268 127.000,14.000 L137.000,14.000 C140.313,14.000 143.000,16.686 143.000,20.000 L143.000,28.000 L143.000,30.000 L143.000,32.000 C143.000,34.209 141.209,36.000 139.000,36.000 ZM113.000,8.000 C109.686,8.000 107.000,10.686 107.000,14.000 C107.000,17.314 109.686,20.000 113.000,20.000 C116.313,20.000 119.000,17.314 119.000,14.000 C119.000,10.686 116.313,8.000 113.000,8.000 Z"/>
<path fill-rule="evenodd"  fill="rgb(231, 231, 231)"
 d="M140.000,53.000 L86.000,53.000 C84.343,53.000 83.000,51.657 83.000,50.000 C83.000,48.343 84.343,47.000 86.000,47.000 L140.000,47.000 C141.657,47.000 143.000,48.343 143.000,50.000 C143.000,51.657 141.657,53.000 140.000,53.000 ZM86.000,64.000 L122.000,64.000 C123.657,64.000 125.000,65.343 125.000,67.000 C125.000,68.657 123.657,70.000 122.000,70.000 L86.000,70.000 C84.343,70.000 83.000,68.657 83.000,67.000 C83.000,65.343 84.343,64.000 86.000,64.000 ZM86.000,81.000 L122.000,81.000 C123.657,81.000 125.000,82.343 125.000,84.000 C125.000,85.657 123.657,87.000 122.000,87.000 L86.000,87.000 C84.343,87.000 83.000,85.657 83.000,84.000 C83.000,82.343 84.343,81.000 86.000,81.000 ZM86.000,98.000 L122.000,98.000 C123.657,98.000 125.000,99.343 125.000,101.000 C125.000,102.657 123.657,104.000 122.000,104.000 L86.000,104.000 C84.343,104.000 83.000,102.657 83.000,101.000 C83.000,99.343 84.343,98.000 86.000,98.000 ZM86.000,115.000 L140.000,115.000 C141.657,115.000 143.000,116.343 143.000,118.000 C143.000,119.657 141.657,121.000 140.000,121.000 L86.000,121.000 C84.343,121.000 83.000,119.657 83.000,118.000 C83.000,116.343 84.343,115.000 86.000,115.000 Z"/>
<path fill-rule="evenodd"  fill="rgb(57, 221, 146)"
 d="M165.159,50.745 L170.861,55.413 C171.517,55.949 172.343,56.222 173.184,56.180 L180.498,55.809 C182.109,55.727 183.558,56.797 183.980,58.379 L185.893,65.561 C186.113,66.387 186.624,67.101 187.328,67.569 L193.460,71.636 C194.810,72.533 195.364,74.264 194.790,75.796 L192.183,82.748 C191.883,83.548 191.883,84.431 192.183,85.230 L194.790,92.182 C195.364,93.714 194.810,95.445 193.460,96.341 L187.328,100.409 C186.624,100.877 186.113,101.591 185.893,102.417 L183.980,109.599 C183.558,111.180 182.109,112.250 180.498,112.169 L173.184,111.798 C172.343,111.755 171.517,112.028 170.861,112.565 L165.159,117.233 C163.903,118.260 162.111,118.260 160.855,117.233 L155.152,112.565 C154.497,112.028 153.670,111.755 152.829,111.798 L145.515,112.169 C143.905,112.250 142.455,111.180 142.034,109.599 L140.120,102.417 C139.901,101.591 139.390,100.877 138.685,100.409 L132.554,96.341 C131.203,95.445 130.649,93.714 131.224,92.182 L133.830,85.230 C134.130,84.431 134.130,83.548 133.830,82.748 L131.224,75.796 C130.649,74.264 131.203,72.533 132.554,71.636 L138.685,67.569 C139.390,67.101 139.901,66.387 140.120,65.561 L142.034,58.379 C142.455,56.797 143.905,55.727 145.515,55.809 L152.829,56.180 C153.670,56.222 154.497,55.949 155.152,55.413 L160.855,50.745 C162.111,49.717 163.903,49.717 165.159,50.745 Z"/>
<path fill-rule="evenodd"  stroke="rgb(0, 0, 0)" stroke-width="6px" stroke-linecap="round" stroke-linejoin="round" fill-opacity="0" opacity="0.059" fill="rgb(227, 51, 51)"
 d="M153.000,89.000 L159.000,95.000 L173.000,81.000 "/>
<path fill-rule="evenodd"  stroke="rgb(255, 255, 255)" stroke-width="6px" stroke-linecap="round" stroke-linejoin="round" fill-opacity="0" fill="rgb(227, 51, 51)"
 d="M153.000,85.000 L159.000,91.000 L173.000,77.000 "/>
</svg>